<svg width="200" height="103" viewBox="0 0 200 103" fill="none" xmlns="http://www.w3.org/2000/svg">
<path d="M171.077 0.520188C169.794 1.07507 169.794 1.00571 170.279 2.25419C170.557 2.9478 170.834 3.15588 171.32 3.01716C171.909 2.87844 172.36 3.36396 172.36 4.1616C172.36 4.40436 168.303 5.89561 167.678 5.89561C167.644 5.89561 167.505 5.54881 167.401 5.13265C167.262 4.61244 167.401 4.23096 167.887 3.88416C168.372 3.53736 168.511 3.19056 168.337 2.67036C167.991 1.56059 167.609 1.42187 166.014 1.90739C164.731 2.28887 164.557 2.46228 164.557 3.32928C164.557 4.09224 164.765 4.335 165.424 4.5084C165.944 4.64712 166.326 4.99393 166.395 5.44477C166.499 6.10369 166.222 6.24241 164.072 6.72793C162.754 7.04005 161.575 7.28281 161.471 7.28281C161.02 7.28281 161.297 5.86093 161.783 5.68753C162.442 5.44477 162.476 4.02288 161.852 3.53736C161.505 3.25992 160.985 3.25992 160.014 3.50268C158.28 3.9882 158.003 4.26564 158.28 5.34073C158.454 5.99965 158.731 6.24241 159.355 6.24241C159.979 6.24241 160.222 6.41581 160.222 6.93601C160.222 7.45621 159.979 7.62962 159.355 7.62962C158.835 7.62962 158.349 7.90706 158.107 8.39258C157.517 9.5717 156.373 10.7508 155.298 11.3057C154.5 11.7219 147.599 13.5599 118.606 21.1202C115.658 21.8832 106.087 24.3801 97.3471 26.669C88.6077 28.9926 81.1515 30.8653 80.77 30.8653C80.3885 30.8653 79.6949 30.4838 79.2441 29.9983C78.169 28.9579 78.1343 27.7441 79.0707 24.1027C79.9377 20.6693 79.9377 18.9007 79.0707 16.5424C78.2731 14.3922 77.4061 13.4906 75.2559 12.5195C70.7821 10.4734 64.4704 12.797 55.6963 19.6289C49.9047 24.1374 47.0609 25.3165 41.7896 25.3165C38.8071 25.3165 35.8593 24.6922 29.062 22.6808C25.2818 21.571 24.2414 21.3976 19.9411 21.2589C12.6582 20.9815 8.70471 22.23 4.7165 25.9754C1.35253 29.2007 0 32.8421 0 38.8764C0 52.471 7.76835 67.2794 19.733 76.331C27.0158 81.8104 34.264 82.9549 40.8879 79.6256C41.8936 79.1401 43.038 78.4811 43.4542 78.2037L44.2172 77.6835L43.3502 77.4407C42.8646 77.302 41.304 76.6084 39.8822 75.9148C28.4724 70.1926 27.2586 55.4188 37.732 50.1475C40.6798 48.6909 41.8936 48.4828 47.4771 48.4135C53.7542 48.3094 54.5865 48.032 56.1471 45.6044C56.702 44.7374 57.6384 42.4485 58.2626 40.5064C59.5458 36.4488 60.8983 34.6801 63.2912 34.0212C65.2333 33.501 65.9616 33.5357 70.7475 34.5067C73.9727 35.1656 76.0882 35.3737 79.3828 35.3737C86.9778 35.3737 90.9313 34.5067 107.925 28.9926C125.854 23.201 137.611 19.6636 153.043 15.4673C166.569 11.7566 167.921 11.4444 169.933 11.4444C172.36 11.4444 173.713 12.1727 175.967 14.6003C177.805 16.5771 177.944 16.6465 179.574 16.6465C180.51 16.6465 182.001 16.5424 182.903 16.4384C184.498 16.1956 184.498 16.1956 184.498 14.8431C184.498 12.901 183.146 10.5427 180.649 8.08046C178.533 5.99965 178.464 5.89561 178.325 3.84948L178.187 1.76867L176.14 2.7744C173.747 3.9882 173.054 4.05756 173.054 3.1212C173.054 2.73972 173.297 2.4276 173.609 2.4276C173.99 2.4276 174.094 2.15015 174.025 1.28315C173.956 0.381467 173.747 0.173386 173.054 0.104026C172.568 0.0346658 171.667 0.242747 171.077 0.520188Z" fill="#404040"/>
<path d="M53.9623 52.5751C47.8933 54.2397 45.1188 57.5344 44.8067 63.4647C44.7027 65.8923 44.8067 66.7593 45.431 68.4586C46.3673 70.8862 48.5869 73.2791 51.0491 74.4929C54.6906 76.2616 59.8579 76.2269 63.534 74.3542L65.2333 73.4872L65.1293 68.5626L65.0252 63.6381H61.037H57.0488V65.5455V67.4529L58.7135 67.5569L60.3434 67.661V69.3603V71.0249L58.6441 71.4064C56.4246 71.8573 53.7542 71.233 52.367 69.8805C50.0087 67.5916 49.5579 62.5283 51.4306 59.6845C53.3034 56.8754 57.2569 56.0778 60.6902 57.8812C62.5976 58.8522 63.4646 58.6441 64.4357 56.9101C64.8518 56.1818 65.1986 55.4882 65.1986 55.3842C65.1986 54.8987 61.8347 53.2687 59.6845 52.6791C57.0488 51.9509 56.2858 51.9162 53.9623 52.5751Z" fill="#404040"/>
<path d="M95.301 52.5057L93.2896 52.8178V64.2276V75.6027H96.064H98.8384V64.2276V52.8178L98.0754 52.5057C97.5552 52.2976 96.5148 52.2976 95.301 52.5057Z" fill="#404040"/>
<path d="M69.3949 52.6791C68.9441 52.9566 68.9094 54.3091 68.9788 60.933C69.0481 67.9037 69.1522 69.0135 69.7417 70.4353C71.233 73.9034 74.4582 75.7761 78.8973 75.7414C83.2323 75.7067 86.0414 74.0421 87.8101 70.4353C88.5384 68.9441 88.6077 68.2852 88.7118 60.9677C88.8505 53.1993 88.8505 53.13 88.0875 52.7138C87.602 52.4364 86.631 52.4017 85.2784 52.5404L83.2323 52.7832V60.2047C83.2323 68.3545 83.0242 69.4296 81.3249 70.5394C80.1111 71.337 77.6488 71.3717 76.5044 70.6087C74.4929 69.3256 74.3889 68.8401 74.2848 60.4821L74.1808 52.7832L72.8976 52.5751C71.0943 52.2976 69.9498 52.3323 69.3949 52.6791Z" fill="#404040"/>
<path d="M106.399 52.6444L101.96 52.7485V54.7946V56.8754H105.081H108.202V66.2391V75.6027H110.976H113.751V66.2391V56.8754H116.976H120.167V54.7946V52.7138L118.433 52.6791C113.959 52.5404 110.456 52.5404 106.399 52.6444Z" fill="#404040"/>
<path d="M128.906 52.7138L127.241 52.8872L125.75 56.702C124.953 58.7828 123.01 63.8114 121.45 67.7997C119.889 71.8226 118.606 75.2212 118.606 75.3599C118.606 75.7067 123.184 75.6721 123.739 75.2906C124.016 75.1518 124.571 74.0074 125.022 72.7936L125.82 70.5741H130.085H134.386L135.079 72.5162C136.12 75.4293 136.328 75.6027 139.102 75.6027C140.42 75.6027 141.495 75.464 141.495 75.2906C141.495 75.1172 140.385 72.1347 139.033 68.632C137.645 65.1293 135.738 60.1354 134.732 57.569C132.964 52.9566 132.894 52.8872 131.75 52.7138C131.091 52.6098 129.808 52.6098 128.906 52.7138ZM131.576 62.2508C132.305 64.4704 132.86 66.3084 132.79 66.4125C132.547 66.6205 127.623 66.7246 127.415 66.4818C127.172 66.2737 129.738 58.2626 130.05 58.2626C130.155 58.2626 130.848 60.066 131.576 62.2508Z" fill="#404040"/>
<path d="M143.923 64.1583V75.6027H146.697H149.471V71.4411V67.2795H150.442C151.691 67.2795 152.003 67.661 154.327 71.7185C155.332 73.4872 156.442 75.0825 156.789 75.2559C157.413 75.6027 162.65 75.7414 162.65 75.4293C162.65 75.0131 157.378 66.794 156.893 66.4125C156.442 66.1003 156.581 65.8923 157.691 65.1987C161.159 62.9098 161.644 57.1182 158.558 54.6212C156.685 53.13 154.812 52.7485 149.229 52.7138H143.923V64.1583ZM154.5 57.7424C155.436 58.6441 155.679 60.5168 154.986 61.8C154.5 62.7017 152.627 63.4647 150.859 63.4647H149.471V60.17V56.8754H151.552C153.321 56.8754 153.806 57.0142 154.5 57.7424Z" fill="#404040"/>
<path d="M76.1229 80.77C73.4525 81.9838 72.5161 83.6485 72.8283 86.4923C72.967 87.8101 73.2791 88.5384 73.9034 89.1626C74.9091 90.1337 77.2673 91.3475 79.2441 91.937C81.1862 92.4919 83.2323 93.6711 83.2323 94.2259C83.2323 94.4687 83.3364 94.6768 83.5098 94.6768C84.03 94.6768 83.8912 97.2431 83.267 98.665C82.2959 100.885 80.4232 101.752 77.2673 101.509C75.5333 101.37 74.7357 101.127 74.1461 100.572C72.967 99.4626 72.204 99.1158 71.9613 99.5667C71.7185 99.9482 73.1404 101.509 73.5912 101.335C73.7646 101.301 73.8687 101.405 73.8687 101.578C73.8687 102.653 79.4175 103.035 81.2555 102.098C85.0704 100.156 86.2148 95.3357 83.4404 92.7347C82.7468 92.0758 82.0185 91.5209 81.8451 91.5209C81.3249 91.4515 81.0821 91.3822 80.0071 90.9313C79.4869 90.6886 78.6199 90.4111 78.0997 90.3071C77.5794 90.1684 76.9552 89.9256 76.7471 89.7175C76.5044 89.5441 76.2963 89.5094 76.2963 89.6828C76.2963 89.8562 76.1229 89.7175 75.9148 89.3707C75.7067 89.0586 75.4293 88.8505 75.2559 88.9546C74.8744 89.1973 73.8687 86.9431 73.8687 85.868C73.8687 84.8623 75.0131 83.0589 76.1229 82.3306C77.406 81.4983 80.2845 81.5677 82.0879 82.4694C83.2323 83.0936 83.5791 83.1283 83.8912 82.7468C84.6889 81.7758 81.5677 80.1458 78.8973 80.1458C78.1343 80.1458 76.8858 80.4232 76.1229 80.77Z" fill="#404040"/>
<path d="M97.3471 80.4926C91.9717 81.7411 89.0933 86.3882 89.5788 92.9081C89.6828 94.33 89.9603 95.5785 90.1337 95.6478C90.3418 95.7172 90.4458 95.9253 90.3071 96.0987C90.203 96.2721 90.2724 96.4108 90.4805 96.4108C90.6886 96.4108 90.7579 96.6535 90.6539 96.931C90.5152 97.2084 90.6192 97.4512 90.8273 97.4512C91.0354 97.4512 91.2088 97.6593 91.2088 97.9367C91.2088 98.4916 92.8387 100.572 93.2202 100.538C93.9485 100.434 94.33 100.642 94.33 101.127C94.33 101.405 94.5034 101.543 94.6768 101.439C94.8849 101.335 95.0236 101.37 95.0236 101.543C95.0236 102.514 101.301 103.035 103.243 102.237C103.763 102.029 104.457 101.821 104.734 101.752C105.011 101.682 105.289 101.474 105.358 101.301C105.428 101.093 105.67 100.919 105.913 100.919C106.156 100.919 106.641 100.642 106.954 100.26C107.925 99.1852 106.676 99.0118 105.324 100.018C103.694 101.197 101.925 101.682 99.2892 101.578C97.4165 101.509 96.6189 101.301 95.1276 100.434C94.1219 99.8441 93.2896 99.2199 93.2896 99.0811C93.2896 98.9077 92.9774 98.3875 92.596 97.902C90.8966 95.7172 90.3418 90.8273 91.4515 87.9488C93.0815 83.8219 95.7865 81.8451 99.9135 81.8451C101.162 81.8451 102.861 82.0879 103.659 82.3653C104.422 82.6428 105.081 82.7468 105.081 82.6081C105.081 82.4694 105.254 82.6428 105.462 82.9549C105.809 83.5791 106.815 83.8219 106.815 83.3017C106.815 82.9202 106.121 81.9492 106.121 82.3306C106.121 82.504 105.705 82.2266 105.22 81.7411C103.832 80.3539 100.364 79.799 97.3471 80.4926Z" fill="#404040"/>
<path d="M142.327 80.7354C139.9 81.6024 137.992 83.1977 136.813 85.3825C135.842 87.1165 135.773 87.4633 135.773 91.2088C135.773 94.8155 135.842 95.3704 136.709 97.1044C137.541 98.8384 139.171 100.746 139.865 100.746C140.004 100.746 140.246 100.919 140.385 101.162C140.871 101.925 143.645 102.688 145.795 102.619C148.084 102.584 151.205 101.786 151.205 101.231C151.205 101.023 151.379 100.989 151.552 101.093C151.76 101.197 152.003 101.058 152.107 100.78C152.211 100.468 152.523 100.226 152.801 100.226C153.321 100.226 153.46 99.7054 153.043 99.428C152.87 99.3586 152.939 99.3239 153.182 99.3933C153.39 99.428 153.806 99.2199 154.119 98.8731C154.743 98.1795 155.818 95.7172 155.506 95.7172C155.367 95.7172 155.506 95.4744 155.748 95.1623C156.303 94.5034 156.407 89.3707 155.922 88.261C155.748 87.8795 155.54 87.1859 155.471 86.7003C155.298 85.5906 154.292 83.9953 153.043 82.8162C150.65 80.4926 145.657 79.5216 142.327 80.7354ZM149.645 82.504C151.24 83.1977 153.494 85.5559 154.153 87.1859C155.748 90.966 154.708 96.9657 152.142 99.1505C151.587 99.636 150.893 100.226 150.65 100.503C150.373 100.746 149.645 101.058 149.021 101.162C148.431 101.266 147.772 101.439 147.564 101.613C147.217 101.89 143.09 101.439 142.501 101.058C142.327 100.954 142.189 101.058 142.189 101.231C142.189 101.439 142.05 101.613 141.842 101.613C141.668 101.613 141.634 101.37 141.738 101.023C141.876 100.711 141.807 100.538 141.634 100.642C141.46 100.746 140.489 99.9828 139.483 98.9771C138.478 97.9367 137.715 97.1044 137.819 97.1044C137.923 97.1044 137.749 96.4455 137.472 95.6478C137.195 94.8155 136.952 93.0121 136.917 91.5556C136.882 89.2667 137.021 88.6771 137.923 86.8737C139.137 84.5502 139.969 83.6485 142.015 82.5734C143.819 81.6024 147.633 81.5677 149.645 82.504Z" fill="#404040"/>
<path d="M112.468 80.9781C112.606 81.2556 112.71 86.2495 112.745 92.0758C112.78 101.752 112.814 102.688 113.335 102.584C113.855 102.48 113.924 101.821 113.924 97.1737C113.924 93.9138 114.063 91.9024 114.271 91.8677C114.479 91.8677 117.635 91.833 121.276 91.7983C126.582 91.729 128.004 91.833 128.143 92.1798C128.247 92.4572 128.316 94.9195 128.316 97.6593C128.316 101.89 128.386 102.653 128.837 102.653C129.288 102.653 129.357 101.786 129.357 96.3414C129.322 92.8387 129.426 87.8448 129.565 85.2091L129.808 80.4579H128.837H127.9L128.143 85.2091C128.282 87.8448 128.421 90.1337 128.455 90.3418C128.455 90.5498 125.854 90.7232 121.311 90.7926L114.098 90.862V85.6599V80.4579H113.196C112.537 80.4579 112.329 80.5966 112.468 80.9781Z" fill="#404040"/>
<path d="M168.199 80.8047C166.811 81.1862 165.077 82.1919 165.077 82.5734C165.077 82.7815 164.939 82.8162 164.731 82.7121C164.557 82.6081 164.384 82.7468 164.384 83.0589C164.384 83.371 164.245 83.5098 164.037 83.4057C163.864 83.3017 163.517 83.5791 163.274 84.0647C163.066 84.5502 162.754 84.9663 162.615 84.9663C162.476 84.9663 162.06 85.6946 161.713 86.5963C160.5 89.7869 161.02 96.2374 162.65 98.2488C162.823 98.4916 163.378 99.1852 163.898 99.7748C164.384 100.399 165.008 100.919 165.251 100.919C165.494 100.919 165.771 101.093 165.84 101.266C165.91 101.474 166.291 101.682 166.742 101.717C167.158 101.717 167.505 101.89 167.505 102.064C167.505 102.202 167.644 102.272 167.817 102.133C167.991 102.029 168.233 102.098 168.372 102.306C168.649 102.757 173.643 102.757 173.921 102.306C174.06 102.098 174.268 102.029 174.441 102.133C174.823 102.376 177.562 100.954 177.562 100.503C177.562 100.33 177.701 100.26 177.874 100.399C178.256 100.607 179.99 98.4916 179.99 97.8673C179.99 97.6246 180.163 97.4512 180.371 97.4512C180.579 97.4512 180.683 97.2084 180.545 96.931C180.441 96.6535 180.51 96.4108 180.718 96.4108C180.926 96.4108 180.996 96.2721 180.857 96.0987C180.753 95.9253 180.822 95.6825 180.996 95.5438C181.412 95.301 181.446 94.8849 181.481 91.2088C181.516 88.8158 181.377 87.9488 180.718 86.5269C180.267 85.5559 179.816 84.7236 179.678 84.6195C179.574 84.5155 179.296 84.134 179.088 83.7525C178.845 83.371 178.429 83.0936 178.117 83.163C177.77 83.2323 177.562 83.0242 177.562 82.6774C177.562 82.3306 177.458 82.1572 177.354 82.296C177.25 82.4 176.799 82.1919 176.418 81.8104C176.002 81.429 175.1 80.9781 174.406 80.8047C173.019 80.4232 169.551 80.4232 168.199 80.8047ZM174.129 81.637C174.268 81.5677 174.441 81.6717 174.51 81.8451C174.58 82.0532 174.892 82.2613 175.204 82.3306C176.834 82.5387 179.088 85.4865 180.025 88.5384C180.961 91.6596 180.371 94.8155 178.117 98.8731C177.944 99.1852 177.077 99.8094 176.21 100.26C175.343 100.711 174.545 101.162 174.441 101.266C174.337 101.37 173.297 101.509 172.117 101.578C170.141 101.682 166.638 100.885 166.118 100.26C166.014 100.122 165.494 99.6707 164.939 99.2545C164.384 98.8384 164.072 98.4916 164.245 98.4916C164.419 98.4916 164.349 98.3529 164.072 98.1795C163.794 98.0061 163.517 97.6593 163.482 97.3818C163.447 97.1391 163.135 96.2374 162.823 95.3704C162.199 93.7057 162.095 89.9256 162.65 88.2263C163.205 86.4229 164.002 84.4461 164.037 84.7583C164.037 84.9663 164.419 84.5849 164.904 83.9259C165.39 83.267 165.771 82.8855 165.771 83.0589C165.771 83.2323 165.979 83.1283 166.222 82.8162C166.43 82.5387 167.574 82.0879 168.719 81.8451C169.863 81.6024 170.973 81.3943 171.146 81.3596C171.355 81.2902 172.048 81.3943 172.672 81.533C173.331 81.6717 173.99 81.7411 174.129 81.637Z" fill="#404040"/>
<path d="M188.209 80.7007C187.654 80.8394 187.62 81.6024 187.689 91.6596L187.793 102.48L193.619 102.584C198.96 102.653 199.411 102.619 199.411 102.064C199.411 101.509 198.995 101.439 194.382 101.474C191.608 101.509 189.249 101.405 189.145 101.231C189.041 101.058 188.972 96.3067 189.007 90.6886C189.007 85.0704 188.972 80.4926 188.937 80.4926C188.868 80.5273 188.556 80.5966 188.209 80.7007Z" fill="#404040"/>
</svg>
